<?xml version="1.0" encoding="UTF-8"?>
<?xml-stylesheet href="skupina_files/xsdvi.css" type="text/css"?>
<!DOCTYPE svg PUBLIC "-//W3C//DTD SVG 1.1//EN" "http://www.w3.org/Graphics/SVG/1.1/DTD/svg11.dtd">
<svg id="svg" xmlns="http://www.w3.org/2000/svg" xmlns:xlink="http://www.w3.org/1999/xlink" onload="loadSVG();" height="1328" width="1496">
<title>XsdVi</title>

<script type="text/ecmascript"><![CDATA[

  var efBoxes = [];
  var eSvg = null;

////////// loadSVG()
  function loadSVG() {
    efBoxes = getElementsByClassName('box', document.getElementsByTagName('g'));
    eSvg = document.getElementById('svg');
    expandAll();
  }

////////// getElementsByClassName(string, nodeList)
  function getElementsByClassName(sClass, nlNodes) {
    var elements = [];
    for (var i=0; i<nlNodes.length; i++) {
      if(nlNodes.item(i).nodeType==1 && sClass==nlNodes.item(i).getAttribute('class')) {
        elements.push(nlNodes.item(i));
      }
    }
    return elements;
  }

////////// show(string)
  function show(sId) {
    var useElement = document.getElementById('s'+sId);
    var moveNext = false;
    var eBoxLast;
    var maxX = 500;
    
    if (notPlus(useElement)) {
      eBoxLast = document.getElementById(sId);
      setPlus(useElement);
      for (var i=0; i<efBoxes.length; i++) {
        var eBox = efBoxes[i];
        if (moveNext) {
          move(eBoxLast, eBox);
        }
        else if (isDescendant(sId, eBox.id)) {
          eBox.setAttribute('visibility', 'hidden');
        }
        else if (isHigherBranch(sId, eBox.id)) {
          move(eBoxLast, eBox);
          moveNext = true;
        }
        if (eBox.getAttribute('visibility') != 'hidden') {
          eBoxLast = eBox;
          x = xTrans(eBox);
          if (x > maxX) maxX = x;
        }
      }
    }

    else {
      setMinus(useElement);
      var skipDescendantsOf;
      for (var i=0; i<efBoxes.length; i++) {
        var eBox = efBoxes[i];
        if (moveNext) {
          move(eBoxLast, eBox);
        }
        else if (isDescendant(sId, eBox.id) && (!skipDescendantsOf || !isDescendant(skipDescendantsOf.id, eBox.id))) {
          eBox.setAttribute('visibility', 'visible');
          move(eBoxLast, eBox);
          if (nextClosed(eBox)) skipDescendantsOf = eBox;
        }
        else if (isHigherBranch(sId, eBox.id)) {
          move(eBoxLast, eBox);
          moveNext = true;
        }
        if (eBox.getAttribute('visibility') != 'hidden') {
          eBoxLast = eBox;
          x = xTrans(eBox);
          if (x > maxX) maxX = x;
        }
      }
    }
    setHeight(yTrans(eBoxLast)+71);
    setWidth(maxX+300);
  }

////////// collapseAll()
  function collapseAll() {
    for (var i=0; i<efBoxes.length; i++) {
      var eBox = efBoxes[i];
      var useElement = document.getElementById('s'+eBox.id);
      if (useElement) setPlus(useElement);
      if (eBox.id != '_1') eBox.setAttribute('visibility', 'hidden');
    }
    setHeight(400);
    setWidth(500);
  }

////////// expandAll()
  function expandAll() {
    var eBoxLast;
    var maxX = 0;
    for (var i=0; i<efBoxes.length; i++) {
      var eBox = efBoxes[i];
      var useElement = document.getElementById('s'+eBox.id);
      if (useElement) setMinus(useElement);
      move(eBoxLast, eBox);
      eBox.setAttribute('visibility', 'visible');
      eBoxLast = eBox;
      var x = xTrans(eBox);
      if (x > maxX) maxX = x;
    }
    setHeight(yTrans(eBoxLast)+71);
    setWidth(maxX+300);
  }

////////// makeVisible(string)
  function makeVisible(sId) {
    var childNodes = document.getElementById(sId).childNodes;
    var hidden = getElementsByClassName('hidden', childNodes);
    var visible = getElementsByClassName('visible', childNodes);
    inheritVisibility(hidden);
    hiddenVisibility(visible);
  }

////////// makeHidden(string)
  function makeHidden(sId) {
    var childNodes = document.getElementById(sId).childNodes;
    var hidden = getElementsByClassName('hidden', childNodes);
    var visible = getElementsByClassName('visible', childNodes);
    inheritVisibility(visible);
    hiddenVisibility(hidden);
  }

////////// inheritVisibility(element[])
  function inheritVisibility(efElements) {
    for (var i=0; i<efElements.length; i++) {
      efElements[i].setAttribute('visibility', 'inherit');
    }
  }

////////// hiddenVisibility(element[])
  function hiddenVisibility(efElements) {
    for (var i=0; i<efElements.length; i++) {
      efElements[i].setAttribute('visibility', 'hidden');
    }
  }

////////// nextClosed(element)
  function nextClosed(eBox) {
    var useElement = document.getElementById('s'+eBox.id);
    return (useElement && !notPlus(useElement));
  }

////////// isHigherBranch(string, string)
  function isHigherBranch(sSerialLower, sSerialHigher) {
    var sLower = sSerialLower.split('_');
    var sHigher = sSerialHigher.split('_');
    for (var i=0; i<sLower.length; i++) {
      if (Number(sHigher[i]) > Number(sLower[i])) return true;
      else if (Number(sHigher[i]) < Number(sLower[i])) return false;
    }
    return false;
  }

////////// isOnHigherLevel(element, element)
  function isOnHigherLevel(eBoxLower, eBoxHigher) {
    var sLower = eBoxLower.id.split('_');
    var sHigher = eBoxHigher.id.split('_');
    for (var i=0; i<sLower.length; i++) {
      if (Number(sHigher[i]) > Number(sLower[i])) return true;
    }
    return false;
  }

////////// isDescendant(string, string)
  function isDescendant(sSerialAsc, sSerialDesc) {
    return (sSerialDesc.length > sSerialAsc.length && sSerialDesc.indexOf(sSerialAsc) === 0);
  }

////////// getParent(element)
  function getParent(eBox) {
    var serial = eBox.id.substring(0, eBox.id.lastIndexOf('_'));
    return document.getElementById(serial);
  }

////////// move(element, element)
  function move(eBoxLast, eBox) {
    if (!eBoxLast) return;
    if (isOnHigherLevel(eBoxLast, eBox)) {
      setYTrans(eBox, yTrans(eBoxLast)+71);
      var parent = getParent(eBox);
      var line = document.getElementById('p'+eBox.id);
      if (!parent || !line) return;
      line.setAttribute('y1', String(yTrans(parent)-yTrans(eBox)+23));
    }
    else {
      setYTrans(eBox, yTrans(eBoxLast));
    }
  }

////////// notPlus(element)
  function notPlus(eUseElement) {
    return (eUseElement.getAttributeNS('http://www.w3.org/1999/xlink', 'href') != '#plus');
  }

////////// setPlus(element)
  function setPlus(eUseElement) {
    eUseElement.setAttributeNS('http://www.w3.org/1999/xlink', 'href', '#plus');
  }

////////// setMinus(element)
  function setMinus(eUseElement) {
    eUseElement.setAttributeNS('http://www.w3.org/1999/xlink', 'href', '#minus');
  }

////////// setHeight(number)
  function setHeight(nHeight) {
    eSvg.setAttribute('height', nHeight);
  }

////////// setWidth(number)
  function setWidth(nWidth) {
    eSvg.setAttribute('width', nWidth);
  }

////////// xyTrans(element)
  function xTrans(eBox) {
    var transform = eBox.getAttribute('transform');
    var x = Number(transform.substring(10, Number(transform.length)-1).split(',')[0]);
    if(!x) x = 0;
    return x;
  }

////////// yTrans(element)
  function yTrans(eBox) {
    var transform = eBox.getAttribute('transform');
    var y = Number(transform.substring(10, Number(transform.length)-1).split(',')[1]);
    if(!y) y = 0;
    return y;
  }

////////// setYTrans(element, number)
  function setYTrans(eBox, nValue) {
    eBox.setAttribute('transform', 'translate('+xTrans(eBox)+','+nValue+')');
  }

]]></script>

<defs>
  <symbol class="button" id="plus">
    <rect x="1" y="1" width="10" height="10"/>
    <line x1="3" y1="6" x2="9" y2="6"/>
    <line x1="6" y1="3" x2="6" y2="9"/>
  </symbol>
  <symbol class="button" id="minus">
    <rect x="1" y="1" width="10" height="10"/>
    <line x1="3" y1="6" x2="9" y2="6"/>
  </symbol>

</defs>
<rect class="button" x="300" y="10" width="20" height="20" onclick="collapseAll()"/>
<line x1="303" y1="20" x2="317" y2="20"/>
<text x="330" y="20">collapse all</text>
<rect class="button" x="400" y="10" width="20" height="20" onclick="expandAll()"/>
<line x1="403" y1="20" x2="417" y2="20"/>
<line x1="410" y1="13" x2="410" y2="27"/>
<text x="430" y="20">expand all</text>

<g id="_1" class="box" transform="translate(20,50)" visibility="visible">
<rect class="boxschema" x="0" y="12" width="63" height="21"/>
<text x="5" y="27"><tspan class="big">/ </tspan>schema</text>
<use x="62" y="17" xlink:href="#minus" id="s_1" onclick='show("_1")'/>
</g>

<g id="_1_1" class="box" transform="translate(128,50)" visibility="visible">
<rect class="shadow" x="3" y="3" width="171" height="46"/>
<rect class="boxelement" x="0" y="0" width="171" height="46" onmouseover='makeVisible("_1_1")' onmouseout='makeHidden("_1_1")'/>
<text class="visible" x="5" y="13">urn:x-kibic:ns:skupina:1.0</text>
<text class="hidden" visibility="hidden" x="5" y="13">nillable: 0</text>
<text class="hidden" visibility="hidden" x="5" y="41">abstract: 0</text>
<text class="strong" x="5" y="27">skupina</text>
<line class="connection" x1="-35" y1="23" x2="0" y2="23"/>
<use x="170" y="17" xlink:href="#minus" id="s_1_1" onclick='show("_1_1")'/>
</g>

<g id="_1_1_1" class="box" transform="translate(344,50)" visibility="visible">
<rect class="boxcompositor" x="0" y="8" width="60" height="31" rx="9"/>
<circle cx="42" cy="14" r="2"/>
<circle cx="42" cy="23" r="2"/>
<circle cx="42" cy="32" r="2"/>
<text class="small" x="30" y="17">1</text>
<text class="small" x="30" y="26">2</text>
<text class="small" x="30" y="35">3</text>
<line x1="42" y1="14" x2="42" y2="32"/>
<line class="connection" x1="-35" y1="23" x2="0" y2="23"/>
<use x="59" y="17" xlink:href="#minus" id="s_1_1_1" onclick='show("_1_1_1")'/>
</g>

<g id="_1_1_1_1" class="box" transform="translate(449,50)" visibility="visible">
<rect class="shadow" x="3" y="3" width="171" height="46"/>
<rect class="boxelement" x="0" y="0" width="171" height="46" onmouseover='makeVisible("_1_1_1_1")' onmouseout='makeHidden("_1_1_1_1")'/>
<text class="visible" x="5" y="13">urn:x-kibic:ns:skupina:1.0</text>
<text class="hidden" visibility="hidden" x="5" y="13">nillable: 0</text>
<text class="hidden" visibility="hidden" x="5" y="41">abstract: 0</text>
<text class="strong" x="5" y="27">nazev</text>
<text class="visible" x="5" y="41">type: string</text>
<line class="connection" x1="-35" y1="23" x2="0" y2="23"/>
</g>

<g id="_1_1_1_2" class="box" transform="translate(449,121)" visibility="visible">
<rect class="shadow" x="3" y="3" width="171" height="46"/>
<rect class="boxelement" x="0" y="0" width="171" height="46" onmouseover='makeVisible("_1_1_1_2")' onmouseout='makeHidden("_1_1_1_2")'/>
<text class="visible" x="5" y="13">urn:x-kibic:ns:skupina:1.0</text>
<text class="hidden" visibility="hidden" x="5" y="13">nillable: 0</text>
<text class="hidden" visibility="hidden" x="5" y="41">abstract: 0</text>
<text class="strong" x="5" y="27">styl</text>
<text class="visible" x="5" y="41">type: string</text>
<line class="connection" x1="-35" y1="23" x2="0" y2="23"/>
</g>

<g id="_1_1_1_3" class="box" transform="translate(449,192)" visibility="visible">
<rect class="shadow" x="3" y="3" width="171" height="46"/>
<rect class="boxelement" x="0" y="0" width="171" height="46" onmouseover='makeVisible("_1_1_1_3")' onmouseout='makeHidden("_1_1_1_3")'/>
<text class="visible" x="5" y="13">urn:x-kibic:ns:skupina:1.0</text>
<text class="hidden" visibility="hidden" x="5" y="13">nillable: 0</text>
<text class="hidden" visibility="hidden" x="5" y="41">abstract: 0</text>
<text class="strong" x="5" y="27">datum_vzniku</text>
<text class="visible" x="5" y="41">type: date</text>
<text x="5" y="59">0..1</text>
<line class="connection" x1="-35" y1="23" x2="0" y2="23"/>
</g>

<g id="_1_1_1_4" class="box" transform="translate(449,263)" visibility="visible">
<rect class="shadow" x="3" y="3" width="171" height="46"/>
<rect class="boxelement" x="0" y="0" width="171" height="46" onmouseover='makeVisible("_1_1_1_4")' onmouseout='makeHidden("_1_1_1_4")'/>
<text class="visible" x="5" y="13">urn:x-kibic:ns:skupina:1.0</text>
<text class="hidden" visibility="hidden" x="5" y="13">nillable: 0</text>
<text class="hidden" visibility="hidden" x="5" y="41">abstract: 0</text>
<text class="strong" x="5" y="27">puvod</text>
<text class="visible" x="5" y="41">type: string</text>
<line class="connection" x1="-35" y1="23" x2="0" y2="23"/>
</g>

<g id="_1_1_1_5" class="box" transform="translate(449,334)" visibility="visible">
<rect class="shadow" x="3" y="3" width="171" height="46"/>
<rect class="boxelement" x="0" y="0" width="171" height="46" onmouseover='makeVisible("_1_1_1_5")' onmouseout='makeHidden("_1_1_1_5")'/>
<text class="visible" x="5" y="13">urn:x-kibic:ns:skupina:1.0</text>
<text class="hidden" visibility="hidden" x="5" y="13">nillable: 0</text>
<text class="hidden" visibility="hidden" x="5" y="41">abstract: 0</text>
<text class="strong" x="5" y="27">oficialni_web</text>
<text class="visible" x="5" y="41">type: anyURI</text>
<line class="connection" x1="-35" y1="23" x2="0" y2="23"/>
</g>

<g id="_1_1_1_6" class="box" transform="translate(449,405)" visibility="visible">
<rect class="shadow" x="3" y="3" width="171" height="46"/>
<rect class="boxelement" x="0" y="0" width="171" height="46" onmouseover='makeVisible("_1_1_1_6")' onmouseout='makeHidden("_1_1_1_6")'/>
<text class="visible" x="5" y="13">urn:x-kibic:ns:skupina:1.0</text>
<text class="hidden" visibility="hidden" x="5" y="13">nillable: 0</text>
<text class="hidden" visibility="hidden" x="5" y="41">abstract: 0</text>
<text class="strong" x="5" y="27">fotka</text>
<text class="visible" x="5" y="41">type: fotkaTyp</text>
<text x="5" y="59">0..1</text>
<line class="connection" x1="-35" y1="23" x2="0" y2="23"/>
<use x="170" y="17" xlink:href="#minus" id="s_1_1_1_6" onclick='show("_1_1_1_6")'/>
</g>

<g id="_1_1_1_6_1" class="box" transform="translate(665,405)" visibility="visible">
<rect class="shadow" x="3" y="3" width="93" height="46" rx="9"/>
<rect class="boxattribute1" x="0" y="0" width="93" height="46" rx="9" onmouseover='makeVisible("_1_1_1_6_1")' onmouseout='makeHidden("_1_1_1_6_1")'/>
<text class="strong" x="5" y="27"><tspan class="big">@</tspan> zdroj</text>
<text class="visible" x="5" y="41">type: string</text>
<text class="hidden" visibility="hidden" x="5" y="41">use: required</text>
<line class="connection" x1="-35" y1="23" x2="0" y2="23"/>
</g>

<g id="_1_1_1_6_2" class="box" transform="translate(665,476)" visibility="visible">
<rect class="shadow" x="3" y="3" width="93" height="46" rx="9"/>
<rect class="boxattribute1" x="0" y="0" width="93" height="46" rx="9" onmouseover='makeVisible("_1_1_1_6_2")' onmouseout='makeHidden("_1_1_1_6_2")'/>
<text class="strong" x="5" y="27"><tspan class="big">@</tspan> popis</text>
<text class="visible" x="5" y="41">type: string</text>
<text class="hidden" visibility="hidden" x="5" y="41">use: required</text>
<line class="connection" x1="-35" y1="23" x2="0" y2="23"/>
</g>

<g id="_1_1_1_6_3" class="box" transform="translate(665,547)" visibility="visible">
<rect class="shadow" x="3" y="3" width="93" height="46" rx="9"/>
<rect class="boxattribute1" x="0" y="0" width="93" height="46" rx="9" onmouseover='makeVisible("_1_1_1_6_3")' onmouseout='makeHidden("_1_1_1_6_3")'/>
<text class="strong" x="5" y="27"><tspan class="big">@</tspan> sirka</text>
<text class="visible" x="5" y="41">type: string</text>
<text class="hidden" visibility="hidden" x="5" y="41">use: required</text>
<line class="connection" x1="-35" y1="23" x2="0" y2="23"/>
</g>

<g id="_1_1_1_6_4" class="box" transform="translate(665,618)" visibility="visible">
<rect class="shadow" x="3" y="3" width="93" height="46" rx="9"/>
<rect class="boxattribute1" x="0" y="0" width="93" height="46" rx="9" onmouseover='makeVisible("_1_1_1_6_4")' onmouseout='makeHidden("_1_1_1_6_4")'/>
<text class="strong" x="5" y="27"><tspan class="big">@</tspan> vyska</text>
<text class="visible" x="5" y="41" visibility="inherit">type: string</text>
<text class="hidden" visibility="hidden" x="5" y="41">use: required</text>
<line class="connection" id="p_1_1_1_6_4" x1="-35" y1="-190" x2="-35" y2="-40"/>
<path class="connection" d="M-35,-40 Q-35,15 0,23"/>
</g>

<g id="_1_1_1_7" class="box" transform="translate(449,689)" visibility="visible">
<rect class="shadow" x="3" y="3" width="171" height="46"/>
<rect class="boxelement" x="0" y="0" width="171" height="46" onmouseover='makeVisible("_1_1_1_7")' onmouseout='makeHidden("_1_1_1_7")'/>
<text class="visible" x="5" y="13" visibility="inherit">urn:x-kibic:ns:skupina:1.0</text>
<text class="hidden" visibility="hidden" x="5" y="13">nillable: 0</text>
<text class="hidden" visibility="hidden" x="5" y="41">abstract: 0</text>
<text class="strong" x="5" y="27">popis</text>
<text class="visible" x="5" y="41" visibility="inherit">type: popisTyp</text>
<line class="connection" x1="-35" y1="23" x2="0" y2="23"/>
<use x="170" y="17" xlink:href="#minus" id="s_1_1_1_7" onclick='show("_1_1_1_7")'/>
</g>

<g id="_1_1_1_7_1" class="box" transform="translate(665,689)" visibility="visible">
<rect class="boxcompositor" x="0" y="8" width="60" height="31" rx="9"/>
<circle cx="42" cy="14" r="2"/>
<circle cx="42" cy="23" r="2"/>
<circle cx="42" cy="32" r="2"/>
<text class="small" x="30" y="17">1</text>
<text class="small" x="30" y="26">2</text>
<text class="small" x="30" y="35">3</text>
<line x1="42" y1="14" x2="42" y2="32"/>
<text x="5" y="52">1..∞</text>
<line class="connection" x1="-35" y1="23" x2="0" y2="23"/>
<use x="59" y="17" xlink:href="#minus" id="s_1_1_1_7_1" onclick='show("_1_1_1_7_1")'/>
</g>

<g id="_1_1_1_7_1_1" class="box" transform="translate(770,689)" visibility="visible">
<rect class="shadow" x="3" y="3" width="171" height="46"/>
<rect class="boxelement" x="0" y="0" width="171" height="46" onmouseover='makeVisible("_1_1_1_7_1_1")' onmouseout='makeHidden("_1_1_1_7_1_1")'/>
<text class="visible" x="5" y="13" visibility="inherit">urn:x-kibic:ns:skupina:1.0</text>
<text class="hidden" visibility="hidden" x="5" y="13">nillable: 0</text>
<text class="hidden" visibility="hidden" x="5" y="41">abstract: 0</text>
<text class="strong" x="5" y="27">odstavec</text>
<text class="visible" x="5" y="41" visibility="inherit">type: string</text>
<line class="connection" x1="-35" y1="23" x2="0" y2="23"/>
</g>

<g id="_1_1_1_8" class="box" transform="translate(449,760)" visibility="visible">
<rect class="shadow" x="3" y="3" width="171" height="46"/>
<rect class="boxelement" x="0" y="0" width="171" height="46" onmouseover='makeVisible("_1_1_1_8")' onmouseout='makeHidden("_1_1_1_8")'/>
<text class="visible" x="5" y="13" visibility="inherit">urn:x-kibic:ns:skupina:1.0</text>
<text class="hidden" visibility="hidden" x="5" y="13">nillable: 0</text>
<text class="hidden" visibility="hidden" x="5" y="41">abstract: 0</text>
<text class="strong" x="5" y="27">clenove</text>
<text class="visible" x="5" y="41" visibility="inherit">type: clenoveTyp</text>
<line class="connection" x1="-35" y1="23" x2="0" y2="23"/>
<use x="170" y="17" xlink:href="#minus" id="s_1_1_1_8" onclick='show("_1_1_1_8")'/>
</g>

<g id="_1_1_1_8_1" class="box" transform="translate(665,760)" visibility="visible">
<rect class="boxcompositor" x="0" y="8" width="60" height="31" rx="9"/>
<circle cx="42" cy="14" r="2"/>
<circle cx="42" cy="23" r="2"/>
<circle cx="42" cy="32" r="2"/>
<text class="small" x="30" y="17">1</text>
<text class="small" x="30" y="26">2</text>
<text class="small" x="30" y="35">3</text>
<line x1="42" y1="14" x2="42" y2="32"/>
<text x="5" y="52">1..∞</text>
<line class="connection" x1="-35" y1="23" x2="0" y2="23"/>
<use x="59" y="17" xlink:href="#minus" id="s_1_1_1_8_1" onclick='show("_1_1_1_8_1")'/>
</g>

<g id="_1_1_1_8_1_1" class="box" transform="translate(770,760)" visibility="visible">
<rect class="shadow" x="3" y="3" width="171" height="46"/>
<rect class="boxelement" x="0" y="0" width="171" height="46" onmouseover='makeVisible("_1_1_1_8_1_1")' onmouseout='makeHidden("_1_1_1_8_1_1")'/>
<text class="visible" x="5" y="13">urn:x-kibic:ns:skupina:1.0</text>
<text class="hidden" visibility="hidden" x="5" y="13">nillable: 0</text>
<text class="hidden" visibility="hidden" x="5" y="41">abstract: 0</text>
<text class="strong" x="5" y="27">clen</text>
<line class="connection" x1="-35" y1="23" x2="0" y2="23"/>
<use x="170" y="17" xlink:href="#minus" id="s_1_1_1_8_1_1" onclick='show("_1_1_1_8_1_1")'/>
</g>

<g id="_1_1_1_8_1_1_1" class="box" transform="translate(986,760)" visibility="visible">
<rect class="boxcompositor" x="0" y="8" width="60" height="31" rx="9"/>
<circle cx="42" cy="14" r="2"/>
<circle cx="42" cy="23" r="2"/>
<circle cx="42" cy="32" r="2"/>
<text class="small" x="30" y="17">1</text>
<text class="small" x="30" y="26">2</text>
<text class="small" x="30" y="35">3</text>
<line x1="42" y1="14" x2="42" y2="32"/>
<line class="connection" x1="-35" y1="23" x2="0" y2="23"/>
<use x="59" y="17" xlink:href="#minus" id="s_1_1_1_8_1_1_1" onclick='show("_1_1_1_8_1_1_1")'/>
</g>

<g id="_1_1_1_8_1_1_1_1" class="box" transform="translate(1091,760)" visibility="visible">
<rect class="shadow" x="3" y="3" width="171" height="46"/>
<rect class="boxelement" x="0" y="0" width="171" height="46" onmouseover='makeVisible("_1_1_1_8_1_1_1_1")' onmouseout='makeHidden("_1_1_1_8_1_1_1_1")'/>
<text class="visible" x="5" y="13">urn:x-kibic:ns:skupina:1.0</text>
<text class="hidden" visibility="hidden" x="5" y="13">nillable: 0</text>
<text class="hidden" visibility="hidden" x="5" y="41">abstract: 0</text>
<text class="strong" x="5" y="27">jmeno</text>
<text class="visible" x="5" y="41">type: string</text>
<line class="connection" x1="-35" y1="23" x2="0" y2="23"/>
</g>

<g id="_1_1_1_8_1_1_1_2" class="box" transform="translate(1091,831)" visibility="visible">
<rect class="boxcompositor" x="0" y="8" width="60" height="31" rx="9"/>
<circle cx="42" cy="14" r="2"/>
<circle cx="42" cy="23" r="2"/>
<circle cx="42" cy="32" r="2"/>
<text class="small" x="30" y="17">1</text>
<text class="small" x="30" y="26">2</text>
<text class="small" x="30" y="35">3</text>
<line x1="42" y1="14" x2="42" y2="32"/>
<text x="5" y="52">1..∞</text>
<line class="connection" id="p_1_1_1_8_1_1_1_2" x1="-35" y1="-48" x2="-35" y2="-40"/>
<path class="connection" d="M-35,-40 Q-35,15 0,23"/>
<use x="59" y="17" xlink:href="#minus" id="s_1_1_1_8_1_1_1_2" onclick='show("_1_1_1_8_1_1_1_2")'/>
</g>

<g id="_1_1_1_8_1_1_1_2_1" class="box" transform="translate(1196,831)" visibility="visible">
<rect class="shadow" x="3" y="3" width="171" height="46"/>
<rect class="boxelement" x="0" y="0" width="171" height="46" onmouseover='makeVisible("_1_1_1_8_1_1_1_2_1")' onmouseout='makeHidden("_1_1_1_8_1_1_1_2_1")'/>
<text class="visible" x="5" y="13">urn:x-kibic:ns:skupina:1.0</text>
<text class="hidden" visibility="hidden" x="5" y="13">nillable: 0</text>
<text class="hidden" visibility="hidden" x="5" y="41">abstract: 0</text>
<text class="strong" x="5" y="27">nastroj</text>
<text class="visible" x="5" y="41">type: string</text>
<line class="connection" x1="-35" y1="23" x2="0" y2="23"/>
</g>

<g id="_1_1_1_9" class="box" transform="translate(449,902)" visibility="visible">
<rect class="shadow" x="3" y="3" width="171" height="46"/>
<rect class="boxelement" x="0" y="0" width="171" height="46" onmouseover='makeVisible("_1_1_1_9")' onmouseout='makeHidden("_1_1_1_9")'/>
<text class="visible" x="5" y="13" visibility="inherit">urn:x-kibic:ns:skupina:1.0</text>
<text class="hidden" visibility="hidden" x="5" y="13">nillable: 0</text>
<text class="hidden" visibility="hidden" x="5" y="41">abstract: 0</text>
<text class="strong" x="5" y="27">alba</text>
<text class="visible" x="5" y="41" visibility="inherit">type: albaTyp</text>
<text x="5" y="59">0..1</text>
<line class="connection" x1="-35" y1="23" x2="0" y2="23"/>
<use x="170" y="17" xlink:href="#minus" id="s_1_1_1_9" onclick='show("_1_1_1_9")'/>
</g>

<g id="_1_1_1_9_1" class="box" transform="translate(665,902)" visibility="visible">
<rect class="boxcompositor" x="0" y="8" width="60" height="31" rx="9"/>
<circle cx="42" cy="14" r="2"/>
<circle cx="42" cy="23" r="2"/>
<circle cx="42" cy="32" r="2"/>
<text class="small" x="30" y="17">1</text>
<text class="small" x="30" y="26">2</text>
<text class="small" x="30" y="35">3</text>
<line x1="42" y1="14" x2="42" y2="32"/>
<text x="5" y="52">1..∞</text>
<line class="connection" x1="-35" y1="23" x2="0" y2="23"/>
<use x="59" y="17" xlink:href="#minus" id="s_1_1_1_9_1" onclick='show("_1_1_1_9_1")'/>
</g>

<g id="_1_1_1_9_1_1" class="box" transform="translate(770,902)" visibility="visible">
<rect class="shadow" x="3" y="3" width="171" height="46"/>
<rect class="boxelement" x="0" y="0" width="171" height="46" onmouseover='makeVisible("_1_1_1_9_1_1")' onmouseout='makeHidden("_1_1_1_9_1_1")'/>
<text class="visible" x="5" y="13">urn:x-kibic:ns:skupina:1.0</text>
<text class="hidden" visibility="hidden" x="5" y="13">nillable: 0</text>
<text class="hidden" visibility="hidden" x="5" y="41">abstract: 0</text>
<text class="strong" x="5" y="27">album</text>
<line class="connection" x1="-35" y1="23" x2="0" y2="23"/>
<use x="170" y="17" xlink:href="#minus" id="s_1_1_1_9_1_1" onclick='show("_1_1_1_9_1_1")'/>
</g>

<g id="_1_1_1_9_1_1_1" class="box" transform="translate(986,902)" visibility="visible">
<rect class="boxcompositor" x="0" y="8" width="60" height="31" rx="9"/>
<circle cx="42" cy="14" r="2"/>
<circle cx="42" cy="23" r="2"/>
<circle cx="42" cy="32" r="2"/>
<text class="small" x="30" y="17">1</text>
<text class="small" x="30" y="26">2</text>
<text class="small" x="30" y="35">3</text>
<line x1="42" y1="14" x2="42" y2="32"/>
<line class="connection" x1="-35" y1="23" x2="0" y2="23"/>
<use x="59" y="17" xlink:href="#minus" id="s_1_1_1_9_1_1_1" onclick='show("_1_1_1_9_1_1_1")'/>
</g>

<g id="_1_1_1_9_1_1_1_1" class="box" transform="translate(1091,902)" visibility="visible">
<rect class="shadow" x="3" y="3" width="171" height="46"/>
<rect class="boxelement" x="0" y="0" width="171" height="46" onmouseover='makeVisible("_1_1_1_9_1_1_1_1")' onmouseout='makeHidden("_1_1_1_9_1_1_1_1")'/>
<text class="visible" x="5" y="13">urn:x-kibic:ns:skupina:1.0</text>
<text class="hidden" visibility="hidden" x="5" y="13">nillable: 0</text>
<text class="hidden" visibility="hidden" x="5" y="41">abstract: 0</text>
<text class="strong" x="5" y="27">nazev</text>
<text class="visible" x="5" y="41">type: string</text>
<line class="connection" x1="-35" y1="23" x2="0" y2="23"/>
</g>

<g id="_1_1_1_9_1_1_1_2" class="box" transform="translate(1091,973)" visibility="visible">
<rect class="shadow" x="3" y="3" width="171" height="46"/>
<rect class="boxelement" x="0" y="0" width="171" height="46" onmouseover='makeVisible("_1_1_1_9_1_1_1_2")' onmouseout='makeHidden("_1_1_1_9_1_1_1_2")'/>
<text class="visible" x="5" y="13">urn:x-kibic:ns:skupina:1.0</text>
<text class="hidden" visibility="hidden" x="5" y="13">nillable: 0</text>
<text class="hidden" visibility="hidden" x="5" y="41">abstract: 0</text>
<text class="strong" x="5" y="27">vydano</text>
<text class="visible" x="5" y="41">type: date</text>
<line class="connection" x1="-35" y1="23" x2="0" y2="23"/>
</g>

<g id="_1_1_1_9_1_1_1_3" class="box" transform="translate(1091,1044)" visibility="visible">
<rect class="shadow" x="3" y="3" width="171" height="46"/>
<rect class="boxelement" x="0" y="0" width="171" height="46" onmouseover='makeVisible("_1_1_1_9_1_1_1_3")' onmouseout='makeHidden("_1_1_1_9_1_1_1_3")'/>
<text class="visible" x="5" y="13">urn:x-kibic:ns:skupina:1.0</text>
<text class="hidden" visibility="hidden" x="5" y="13">nillable: 0</text>
<text class="hidden" visibility="hidden" x="5" y="41">abstract: 0</text>
<text class="strong" x="5" y="27">vydavatelstvi</text>
<text class="visible" x="5" y="41">type: string</text>
<line class="connection" id="p_1_1_1_9_1_1_1_3" x1="-35" y1="-119" x2="-35" y2="-40"/>
<path class="connection" d="M-35,-40 Q-35,15 0,23"/>
</g>

<g id="_1_1_1_10" class="box" transform="translate(449,1115)" visibility="visible">
<rect class="shadow" x="3" y="3" width="171" height="46"/>
<rect class="boxelement" x="0" y="0" width="171" height="46" onmouseover='makeVisible("_1_1_1_10")' onmouseout='makeHidden("_1_1_1_10")'/>
<text class="visible" x="5" y="13" visibility="inherit">urn:x-kibic:ns:skupina:1.0</text>
<text class="hidden" visibility="hidden" x="5" y="13">nillable: 0</text>
<text class="hidden" visibility="hidden" x="5" y="41">abstract: 0</text>
<text class="strong" x="5" y="27">kontakty</text>
<text class="visible" x="5" y="41" visibility="inherit">type: kontaktyTyp</text>
<line class="connection" id="p_1_1_1_10" x1="-35" y1="-1042" x2="-35" y2="-40"/>
<path class="connection" d="M-35,-40 Q-35,15 0,23"/>
<use x="170" y="17" xlink:href="#minus" id="s_1_1_1_10" onclick='show("_1_1_1_10")'/>
</g>

<g id="_1_1_1_10_1" class="box" transform="translate(665,1115)" visibility="visible">
<rect class="boxcompositor" x="0" y="8" width="60" height="31" rx="9"/>
<circle cx="42" cy="14" r="2"/>
<circle cx="42" cy="23" r="2"/>
<circle cx="42" cy="32" r="2"/>
<text class="small" x="30" y="17">1</text>
<text class="small" x="30" y="26">2</text>
<text class="small" x="30" y="35">3</text>
<line x1="42" y1="14" x2="42" y2="32"/>
<text x="5" y="52">1..∞</text>
<line class="connection" x1="-35" y1="23" x2="0" y2="23"/>
<use x="59" y="17" xlink:href="#minus" id="s_1_1_1_10_1" onclick='show("_1_1_1_10_1")'/>
</g>

<g id="_1_1_1_10_1_1" class="box" transform="translate(770,1115)" visibility="visible">
<rect class="shadow" x="3" y="3" width="171" height="46"/>
<rect class="boxelement" x="0" y="0" width="171" height="46" onmouseover='makeVisible("_1_1_1_10_1_1")' onmouseout='makeHidden("_1_1_1_10_1_1")'/>
<text class="visible" x="5" y="13">urn:x-kibic:ns:skupina:1.0</text>
<text class="hidden" visibility="hidden" x="5" y="13">nillable: 0</text>
<text class="hidden" visibility="hidden" x="5" y="41">abstract: 0</text>
<text class="strong" x="5" y="27">kontakt</text>
<line class="connection" x1="-35" y1="23" x2="0" y2="23"/>
<use x="170" y="17" xlink:href="#minus" id="s_1_1_1_10_1_1" onclick='show("_1_1_1_10_1_1")'/>
</g>

<g id="_1_1_1_10_1_1_1" class="box" transform="translate(986,1115)" visibility="visible">
<rect class="boxcompositor" x="0" y="8" width="60" height="31" rx="9"/>
<circle cx="42" cy="14" r="2"/>
<circle cx="42" cy="23" r="2"/>
<circle cx="42" cy="32" r="2"/>
<text class="small" x="30" y="17">1</text>
<text class="small" x="30" y="26">2</text>
<text class="small" x="30" y="35">3</text>
<line x1="42" y1="14" x2="42" y2="32"/>
<line class="connection" x1="-35" y1="23" x2="0" y2="23"/>
<use x="59" y="17" xlink:href="#minus" id="s_1_1_1_10_1_1_1" onclick='show("_1_1_1_10_1_1_1")'/>
</g>

<g id="_1_1_1_10_1_1_1_1" class="box" transform="translate(1091,1115)" visibility="visible">
<rect class="shadow" x="3" y="3" width="171" height="46"/>
<rect class="boxelement" x="0" y="0" width="171" height="46" onmouseover='makeVisible("_1_1_1_10_1_1_1_1")' onmouseout='makeHidden("_1_1_1_10_1_1_1_1")'/>
<text class="visible" x="5" y="13">urn:x-kibic:ns:skupina:1.0</text>
<text class="hidden" visibility="hidden" x="5" y="13">nillable: 0</text>
<text class="hidden" visibility="hidden" x="5" y="41">abstract: 0</text>
<text class="strong" x="5" y="27">kontaktni_osoba</text>
<text class="visible" x="5" y="41">type: string</text>
<line class="connection" x1="-35" y1="23" x2="0" y2="23"/>
</g>

<g id="_1_1_1_10_1_1_1_2" class="box" transform="translate(1091,1186)" visibility="visible">
<rect class="boxcompositor" x="0" y="8" width="60" height="31" rx="9"/>
<circle cx="42" cy="14" r="2"/>
<circle class="empty" cx="42" cy="23" r="2"/>
<circle class="empty" cx="42" cy="32" r="2"/>
<polyline points="26,23 34,23 34,14 40,14"/>
<text x="5" y="52">1..2</text>
<line class="connection" id="p_1_1_1_10_1_1_1_2" x1="-35" y1="-48" x2="-35" y2="-40"/>
<path class="connection" d="M-35,-40 Q-35,15 0,23"/>
<use x="59" y="17" xlink:href="#minus" id="s_1_1_1_10_1_1_1_2" onclick='show("_1_1_1_10_1_1_1_2")'/>
</g>

<g id="_1_1_1_10_1_1_1_2_1" class="box" transform="translate(1196,1186)" visibility="visible">
<rect class="shadow" x="3" y="3" width="171" height="46"/>
<rect class="boxelement" x="0" y="0" width="171" height="46" onmouseover='makeVisible("_1_1_1_10_1_1_1_2_1")' onmouseout='makeHidden("_1_1_1_10_1_1_1_2_1")'/>
<text class="visible" x="5" y="13">urn:x-kibic:ns:skupina:1.0</text>
<text class="hidden" visibility="hidden" x="5" y="13">nillable: 0</text>
<text class="hidden" visibility="hidden" x="5" y="41">abstract: 0</text>
<text class="strong" x="5" y="27">mail</text>
<text class="visible" x="5" y="41">type: string</text>
<line class="connection" x1="-35" y1="23" x2="0" y2="23"/>
</g>

<g id="_1_1_1_10_1_1_1_2_2" class="box" transform="translate(1196,1257)" visibility="visible">
<rect class="shadow" x="3" y="3" width="171" height="46"/>
<rect class="boxelement" x="0" y="0" width="171" height="46" onmouseover='makeVisible("_1_1_1_10_1_1_1_2_2")' onmouseout='makeHidden("_1_1_1_10_1_1_1_2_2")'/>
<text class="visible" x="5" y="13">urn:x-kibic:ns:skupina:1.0</text>
<text class="hidden" visibility="hidden" x="5" y="13">nillable: 0</text>
<text class="hidden" visibility="hidden" x="5" y="41">abstract: 0</text>
<text class="strong" x="5" y="27">telefon</text>
<text class="visible" x="5" y="41">type: positiveInteger</text>
<line class="connection" id="p_1_1_1_10_1_1_1_2_2" x1="-35" y1="-48" x2="-35" y2="-40"/>
<path class="connection" d="M-35,-40 Q-35,15 0,23"/>
</g>

</svg>