<?xml version="1.0" encoding="UTF-8" standalone="no"?>
<svg xmlns="http://www.w3.org/2000/svg" version="1.0" width="1600" height="1600" id="7-demicube_t0_D7.svg">
<!-- Point overlap:1 2 4  -->
<g style="stroke:#000000;stroke-width:6.0;stroke-opacity:0.50;">
<line x1="1531.275" y1="800.000" x2="1165.637" y2="1433.302"/>
<line x1="1531.275" y1="800.000" x2="1067.665" y2="1263.609"/>
<line x1="1531.275" y1="800.000" x2="897.972" y2="1165.637"/>
<line x1="1531.275" y1="800.000" x2="1067.665" y2="1067.665"/>
<line x1="1531.275" y1="800.000" x2="897.972" y2="969.693"/>
<line x1="1531.275" y1="800.000" x2="800.000" y2="800.000"/>
<line x1="1531.275" y1="800.000" x2="1165.637" y2="897.972"/>
<line x1="1531.275" y1="800.000" x2="995.944" y2="800.000"/>
<line x1="1531.275" y1="800.000" x2="897.972" y2="630.307"/>
<line x1="1531.275" y1="800.000" x2="897.972" y2="434.363"/>
<line x1="1531.275" y1="800.000" x2="1335.330" y2="800.000"/>
<line x1="1531.275" y1="800.000" x2="1165.637" y2="702.028"/>
<line x1="1531.275" y1="800.000" x2="1067.665" y2="532.335"/>
<line x1="1531.275" y1="800.000" x2="1067.665" y2="336.391"/>
<line x1="1531.275" y1="800.000" x2="1165.637" y2="166.698"/>
<line x1="1531.275" y1="800.000" x2="1433.302" y2="1165.637"/>
<line x1="1531.275" y1="800.000" x2="1263.609" y2="1067.665"/>
<line x1="1531.275" y1="800.000" x2="1263.609" y2="532.335"/>
<line x1="1531.275" y1="800.000" x2="1433.302" y2="434.363"/>
<line x1="1165.637" y1="1433.302" x2="1067.665" y2="1263.609"/>
<line x1="1165.637" y1="1433.302" x2="897.972" y2="1165.637"/>
<line x1="1165.637" y1="1433.302" x2="1067.665" y2="1067.665"/>
<line x1="1165.637" y1="1433.302" x2="897.972" y2="969.693"/>
<line x1="1165.637" y1="1433.302" x2="434.363" y2="1433.302"/>
<line x1="1165.637" y1="1433.302" x2="1165.637" y2="897.972"/>
<line x1="1165.637" y1="1433.302" x2="995.944" y2="800.000"/>
<line x1="1165.637" y1="1433.302" x2="532.335" y2="1263.609"/>
<line x1="1165.637" y1="1433.302" x2="532.335" y2="1067.665"/>
<line x1="1165.637" y1="1433.302" x2="1335.330" y2="800.000"/>
<line x1="1165.637" y1="1433.302" x2="1165.637" y2="702.028"/>
<line x1="1165.637" y1="1433.302" x2="702.028" y2="1165.637"/>
<line x1="1165.637" y1="1433.302" x2="702.028" y2="969.693"/>
<line x1="1165.637" y1="1433.302" x2="800.000" y2="800.000"/>
<line x1="1165.637" y1="1433.302" x2="1433.302" y2="1165.637"/>
<line x1="1165.637" y1="1433.302" x2="1263.609" y2="1067.665"/>
<line x1="1165.637" y1="1433.302" x2="800.000" y2="1531.275"/>
<line x1="1165.637" y1="1433.302" x2="800.000" y2="1335.330"/>
<line x1="1067.665" y1="1263.609" x2="897.972" y2="1165.637"/>
<line x1="1067.665" y1="1263.609" x2="1067.665" y2="1067.665"/>
<line x1="1067.665" y1="1263.609" x2="800.000" y2="800.000"/>
<line x1="1067.665" y1="1263.609" x2="434.363" y2="1433.302"/>
<line x1="1067.665" y1="1263.609" x2="1165.637" y2="897.972"/>
<line x1="1067.665" y1="1263.609" x2="897.972" y2="630.307"/>
<line x1="1067.665" y1="1263.609" x2="532.335" y2="1263.609"/>
<line x1="1067.665" y1="1263.609" x2="434.363" y2="897.972"/>
<line x1="1067.665" y1="1263.609" x2="1335.330" y2="800.000"/>
<line x1="1067.665" y1="1263.609" x2="1067.665" y2="532.335"/>
<line x1="1067.665" y1="1263.609" x2="702.028" y2="1165.637"/>
<line x1="1067.665" y1="1263.609" x2="604.056" y2="800.000"/>
<line x1="1067.665" y1="1263.609" x2="702.028" y2="630.307"/>
<line x1="1067.665" y1="1263.609" x2="1433.302" y2="1165.637"/>
<line x1="1067.665" y1="1263.609" x2="800.000" y2="1531.275"/>
<line x1="1067.665" y1="1263.609" x2="800.000" y2="995.944"/>
<line x1="1067.665" y1="1263.609" x2="969.693" y2="897.972"/>
<line x1="897.972" y1="1165.637" x2="897.972" y2="969.693"/>
<line x1="897.972" y1="1165.637" x2="800.000" y2="800.000"/>
<line x1="897.972" y1="1165.637" x2="434.363" y2="1433.302"/>
<line x1="897.972" y1="1165.637" x2="995.944" y2="800.000"/>
<line x1="897.972" y1="1165.637" x2="897.972" y2="630.307"/>
<line x1="897.972" y1="1165.637" x2="532.335" y2="1263.609"/>
<line x1="897.972" y1="1165.637" x2="264.670" y2="800.000"/>
<line x1="897.972" y1="1165.637" x2="1165.637" y2="702.028"/>
<line x1="897.972" y1="1165.637" x2="1067.665" y2="532.335"/>
<line x1="897.972" y1="1165.637" x2="702.028" y2="1165.637"/>
<line x1="897.972" y1="1165.637" x2="434.363" y2="702.028"/>
<line x1="897.972" y1="1165.637" x2="532.335" y2="532.335"/>
<line x1="897.972" y1="1165.637" x2="1263.609" y2="1067.665"/>
<line x1="897.972" y1="1165.637" x2="1165.637" y2="897.972"/>
<line x1="897.972" y1="1165.637" x2="800.000" y2="1531.275"/>
<line x1="897.972" y1="1165.637" x2="532.335" y2="1067.665"/>
<line x1="897.972" y1="1165.637" x2="630.307" y2="897.972"/>
<line x1="1067.665" y1="1067.665" x2="897.972" y2="969.693"/>
<line x1="1067.665" y1="1067.665" x2="800.000" y2="800.000"/>
<line x1="1067.665" y1="1067.665" x2="434.363" y2="1433.302"/>
<line x1="1067.665" y1="1067.665" x2="1165.637" y2="897.972"/>
<line x1="1067.665" y1="1067.665" x2="897.972" y2="434.363"/>
<line x1="1067.665" y1="1067.665" x2="532.335" y2="1067.665"/>
<line x1="1067.665" y1="1067.665" x2="434.363" y2="897.972"/>
<line x1="1067.665" y1="1067.665" x2="1335.330" y2="800.000"/>
<line x1="1067.665" y1="1067.665" x2="1067.665" y2="336.391"/>
<line x1="1067.665" y1="1067.665" x2="702.028" y2="969.693"/>
<line x1="1067.665" y1="1067.665" x2="604.056" y2="800.000"/>
<line x1="1067.665" y1="1067.665" x2="702.028" y2="434.363"/>
<line x1="1067.665" y1="1067.665" x2="1433.302" y2="1165.637"/>
<line x1="1067.665" y1="1067.665" x2="1165.637" y2="702.028"/>
<line x1="1067.665" y1="1067.665" x2="800.000" y2="1335.330"/>
<line x1="1067.665" y1="1067.665" x2="702.028" y2="1165.637"/>
<line x1="1067.665" y1="1067.665" x2="969.693" y2="702.028"/>
<line x1="897.972" y1="969.693" x2="800.000" y2="800.000"/>
<line x1="897.972" y1="969.693" x2="434.363" y2="1433.302"/>
<line x1="897.972" y1="969.693" x2="995.944" y2="800.000"/>
<line x1="897.972" y1="969.693" x2="897.972" y2="434.363"/>
<line x1="897.972" y1="969.693" x2="532.335" y2="1067.665"/>
<line x1="897.972" y1="969.693" x2="264.670" y2="800.000"/>
<line x1="897.972" y1="969.693" x2="1165.637" y2="702.028"/>
<line x1="897.972" y1="969.693" x2="1067.665" y2="336.391"/>
<line x1="897.972" y1="969.693" x2="702.028" y2="969.693"/>
<line x1="897.972" y1="969.693" x2="434.363" y2="702.028"/>
<line x1="897.972" y1="969.693" x2="532.335" y2="336.390"/>
<line x1="897.972" y1="969.693" x2="1263.609" y2="1067.665"/>
<line x1="897.972" y1="969.693" x2="800.000" y2="1335.330"/>
<line x1="897.972" y1="969.693" x2="630.307" y2="702.028"/>
<line x1="897.972" y1="969.693" x2="800.000" y2="604.056"/>
<line x1="800.000" y1="800.000" x2="434.363" y2="1433.302"/>
<line x1="800.000" y1="800.000" x2="897.972" y2="630.307"/>
<line x1="800.000" y1="800.000" x2="897.972" y2="434.363"/>
<line x1="800.000" y1="800.000" x2="434.363" y2="897.972"/>
<line x1="800.000" y1="800.000" x2="264.670" y2="800.000"/>
<line x1="800.000" y1="800.000" x2="1067.665" y2="532.335"/>
<line x1="800.000" y1="800.000" x2="1067.665" y2="336.391"/>
<line x1="800.000" y1="800.000" x2="604.056" y2="800.000"/>
<line x1="800.000" y1="800.000" x2="434.363" y2="702.028"/>
<line x1="800.000" y1="800.000" x2="434.363" y2="166.698"/>
<line x1="800.000" y1="800.000" x2="1165.637" y2="897.972"/>
<line x1="800.000" y1="800.000" x2="1165.637" y2="702.028"/>
<line x1="800.000" y1="800.000" x2="702.028" y2="1165.637"/>
<line x1="800.000" y1="800.000" x2="532.335" y2="1067.665"/>
<line x1="800.000" y1="800.000" x2="532.335" y2="532.335"/>
<line x1="800.000" y1="800.000" x2="702.028" y2="434.363"/>
<line x1="434.363" y1="1433.302" x2="532.335" y2="1263.609"/>
<line x1="434.363" y1="1433.302" x2="532.335" y2="1067.665"/>
<line x1="434.363" y1="1433.302" x2="434.363" y2="897.972"/>
<line x1="434.363" y1="1433.302" x2="264.670" y2="800.000"/>
<line x1="434.363" y1="1433.302" x2="702.028" y2="1165.637"/>
<line x1="434.363" y1="1433.302" x2="702.028" y2="969.693"/>
<line x1="434.363" y1="1433.302" x2="604.056" y2="800.000"/>
<line x1="434.363" y1="1433.302" x2="434.363" y2="702.028"/>
<line x1="434.363" y1="1433.302" x2="68.725" y2="800.000"/>
<line x1="434.363" y1="1433.302" x2="800.000" y2="1531.275"/>
<line x1="434.363" y1="1433.302" x2="800.000" y2="1335.330"/>
<line x1="434.363" y1="1433.302" x2="166.698" y2="1165.637"/>
<line x1="434.363" y1="1433.302" x2="336.390" y2="1067.665"/>
<line x1="1165.637" y1="897.972" x2="995.944" y2="800.000"/>
<line x1="1165.637" y1="897.972" x2="897.972" y2="630.307"/>
<line x1="1165.637" y1="897.972" x2="532.335" y2="1263.609"/>
<line x1="1165.637" y1="897.972" x2="897.972" y2="434.363"/>
<line x1="1165.637" y1="897.972" x2="532.335" y2="1067.665"/>
<line x1="1165.637" y1="897.972" x2="434.363" y2="897.972"/>
<line x1="1165.637" y1="897.972" x2="1335.330" y2="800.000"/>
<line x1="1165.637" y1="897.972" x2="1165.637" y2="166.698"/>
<line x1="1165.637" y1="897.972" x2="702.028" y2="630.307"/>
<line x1="1165.637" y1="897.972" x2="702.028" y2="434.363"/>
<line x1="1165.637" y1="897.972" x2="1433.302" y2="1165.637"/>
<line x1="1165.637" y1="897.972" x2="1263.609" y2="532.335"/>
<line x1="1165.637" y1="897.972" x2="800.000" y2="995.944"/>
<line x1="1165.637" y1="897.972" x2="1067.665" y2="532.335"/>
<line x1="995.944" y1="800.000" x2="897.972" y2="630.307"/>
<line x1="995.944" y1="800.000" x2="532.335" y2="1263.609"/>
<line x1="995.944" y1="800.000" x2="897.972" y2="434.363"/>
<line x1="995.944" y1="800.000" x2="532.335" y2="1067.665"/>
<line x1="995.944" y1="800.000" x2="264.670" y2="800.000"/>
<line x1="995.944" y1="800.000" x2="1165.637" y2="702.028"/>
<line x1="995.944" y1="800.000" x2="1165.637" y2="166.698"/>
<line x1="995.944" y1="800.000" x2="800.000" y2="800.000"/>
<line x1="995.944" y1="800.000" x2="532.335" y2="532.335"/>
<line x1="995.944" y1="800.000" x2="532.335" y2="336.390"/>
<line x1="995.944" y1="800.000" x2="1263.609" y2="1067.665"/>
<line x1="995.944" y1="800.000" x2="1263.609" y2="532.335"/>
<line x1="995.944" y1="800.000" x2="630.307" y2="897.972"/>
<line x1="995.944" y1="800.000" x2="630.307" y2="702.028"/>
<line x1="897.972" y1="630.307" x2="532.335" y2="1263.609"/>
<line x1="897.972" y1="630.307" x2="897.972" y2="434.363"/>
<line x1="897.972" y1="630.307" x2="434.363" y2="897.972"/>
<line x1="897.972" y1="630.307" x2="264.670" y2="800.000"/>
<line x1="897.972" y1="630.307" x2="1067.665" y2="532.335"/>
<line x1="897.972" y1="630.307" x2="1165.637" y2="166.698"/>
<line x1="897.972" y1="630.307" x2="702.028" y2="630.307"/>
<line x1="897.972" y1="630.307" x2="532.335" y2="532.335"/>
<line x1="897.972" y1="630.307" x2="434.363" y2="166.698"/>
<line x1="897.972" y1="630.307" x2="1263.609" y2="532.335"/>
<line x1="897.972" y1="630.307" x2="800.000" y2="995.944"/>
<line x1="897.972" y1="630.307" x2="630.307" y2="897.972"/>
<line x1="897.972" y1="630.307" x2="800.000" y2="264.670"/>
<line x1="532.335" y1="1263.609" x2="532.335" y2="1067.665"/>
<line x1="532.335" y1="1263.609" x2="434.363" y2="897.972"/>
<line x1="532.335" y1="1263.609" x2="264.670" y2="800.000"/>
<line x1="532.335" y1="1263.609" x2="702.028" y2="1165.637"/>
<line x1="532.335" y1="1263.609" x2="800.000" y2="800.000"/>
<line x1="532.335" y1="1263.609" x2="702.028" y2="630.307"/>
<line x1="532.335" y1="1263.609" x2="532.335" y2="532.335"/>
<line x1="532.335" y1="1263.609" x2="68.725" y2="800.000"/>
<line x1="532.335" y1="1263.609" x2="800.000" y2="1531.275"/>
<line x1="532.335" y1="1263.609" x2="800.000" y2="995.944"/>
<line x1="532.335" y1="1263.609" x2="630.307" y2="897.972"/>
<line x1="532.335" y1="1263.609" x2="166.698" y2="1165.637"/>
<line x1="897.972" y1="434.363" x2="532.335" y2="1067.665"/>
<line x1="897.972" y1="434.363" x2="434.363" y2="897.972"/>
<line x1="897.972" y1="434.363" x2="264.670" y2="800.000"/>
<line x1="897.972" y1="434.363" x2="1067.665" y2="336.391"/>
<line x1="897.972" y1="434.363" x2="1165.637" y2="166.698"/>
<line x1="897.972" y1="434.363" x2="702.028" y2="434.363"/>
<line x1="897.972" y1="434.363" x2="532.335" y2="336.390"/>
<line x1="897.972" y1="434.363" x2="434.363" y2="166.698"/>
<line x1="897.972" y1="434.363" x2="1165.637" y2="702.028"/>
<line x1="897.972" y1="434.363" x2="1263.609" y2="532.335"/>
<line x1="897.972" y1="434.363" x2="630.307" y2="702.028"/>
<line x1="897.972" y1="434.363" x2="532.335" y2="532.335"/>
<line x1="897.972" y1="434.363" x2="800.000" y2="68.725"/>
<line x1="532.335" y1="1067.665" x2="434.363" y2="897.972"/>
<line x1="532.335" y1="1067.665" x2="264.670" y2="800.000"/>
<line x1="532.335" y1="1067.665" x2="702.028" y2="969.693"/>
<line x1="532.335" y1="1067.665" x2="702.028" y2="434.363"/>
<line x1="532.335" y1="1067.665" x2="532.335" y2="336.390"/>
<line x1="532.335" y1="1067.665" x2="68.725" y2="800.000"/>
<line x1="532.335" y1="1067.665" x2="800.000" y2="1335.330"/>
<line x1="532.335" y1="1067.665" x2="630.307" y2="702.028"/>
<line x1="532.335" y1="1067.665" x2="166.698" y2="1165.637"/>
<line x1="532.335" y1="1067.665" x2="434.363" y2="702.028"/>
<line x1="434.363" y1="897.972" x2="264.670" y2="800.000"/>
<line x1="434.363" y1="897.972" x2="604.056" y2="800.000"/>
<line x1="434.363" y1="897.972" x2="702.028" y2="630.307"/>
<line x1="434.363" y1="897.972" x2="702.028" y2="434.363"/>
<line x1="434.363" y1="897.972" x2="434.363" y2="166.698"/>
<line x1="434.363" y1="897.972" x2="68.725" y2="800.000"/>
<line x1="434.363" y1="897.972" x2="702.028" y2="1165.637"/>
<line x1="434.363" y1="897.972" x2="800.000" y2="995.944"/>
<line x1="434.363" y1="897.972" x2="532.335" y2="532.335"/>
<line x1="434.363" y1="897.972" x2="166.698" y2="1165.637"/>
<line x1="434.363" y1="897.972" x2="336.390" y2="532.335"/>
<line x1="264.670" y1="800.000" x2="434.363" y2="702.028"/>
<line x1="264.670" y1="800.000" x2="532.335" y2="532.335"/>
<line x1="264.670" y1="800.000" x2="532.335" y2="336.390"/>
<line x1="264.670" y1="800.000" x2="434.363" y2="166.698"/>
<line x1="264.670" y1="800.000" x2="68.725" y2="800.000"/>
<line x1="264.670" y1="800.000" x2="630.307" y2="897.972"/>
<line x1="264.670" y1="800.000" x2="630.307" y2="702.028"/>
<line x1="264.670" y1="800.000" x2="166.698" y2="1165.637"/>
<line x1="264.670" y1="800.000" x2="166.697" y2="434.363"/>
<line x1="1335.330" y1="800.000" x2="1165.637" y2="702.028"/>
<line x1="1335.330" y1="800.000" x2="1067.665" y2="532.335"/>
<line x1="1335.330" y1="800.000" x2="702.028" y2="1165.637"/>
<line x1="1335.330" y1="800.000" x2="1067.665" y2="336.391"/>
<line x1="1335.330" y1="800.000" x2="702.028" y2="969.693"/>
<line x1="1335.330" y1="800.000" x2="604.056" y2="800.000"/>
<line x1="1335.330" y1="800.000" x2="1165.637" y2="166.698"/>
<line x1="1335.330" y1="800.000" x2="800.000" y2="800.000"/>
<line x1="1335.330" y1="800.000" x2="702.028" y2="630.307"/>
<line x1="1335.330" y1="800.000" x2="702.028" y2="434.363"/>
<line x1="1335.330" y1="800.000" x2="1433.302" y2="1165.637"/>
<line x1="1335.330" y1="800.000" x2="1433.302" y2="434.363"/>
<line x1="1335.330" y1="800.000" x2="969.693" y2="897.972"/>
<line x1="1335.330" y1="800.000" x2="969.693" y2="702.028"/>
<line x1="1165.637" y1="702.028" x2="1067.665" y2="532.335"/>
<line x1="1165.637" y1="702.028" x2="702.028" y2="1165.637"/>
<line x1="1165.637" y1="702.028" x2="1067.665" y2="336.391"/>
<line x1="1165.637" y1="702.028" x2="702.028" y2="969.693"/>
<line x1="1165.637" y1="702.028" x2="434.363" y2="702.028"/>
<line x1="1165.637" y1="702.028" x2="1165.637" y2="166.698"/>
<line x1="1165.637" y1="702.028" x2="532.335" y2="532.335"/>
<line x1="1165.637" y1="702.028" x2="532.335" y2="336.390"/>
<line x1="1165.637" y1="702.028" x2="1263.609" y2="1067.665"/>
<line x1="1165.637" y1="702.028" x2="1433.302" y2="434.363"/>
<line x1="1165.637" y1="702.028" x2="800.000" y2="604.056"/>
<line x1="1067.665" y1="532.335" x2="702.028" y2="1165.637"/>
<line x1="1067.665" y1="532.335" x2="1067.665" y2="336.391"/>
<line x1="1067.665" y1="532.335" x2="604.056" y2="800.000"/>
<line x1="1067.665" y1="532.335" x2="434.363" y2="702.028"/>
<line x1="1067.665" y1="532.335" x2="1165.637" y2="166.698"/>
<line x1="1067.665" y1="532.335" x2="702.028" y2="630.307"/>
<line x1="1067.665" y1="532.335" x2="532.335" y2="532.335"/>
<line x1="1067.665" y1="532.335" x2="434.363" y2="166.698"/>
<line x1="1067.665" y1="532.335" x2="1433.302" y2="434.363"/>
<line x1="1067.665" y1="532.335" x2="969.693" y2="897.972"/>
<line x1="1067.665" y1="532.335" x2="702.028" y2="434.363"/>
<line x1="1067.665" y1="532.335" x2="800.000" y2="264.670"/>
<line x1="702.028" y1="1165.637" x2="702.028" y2="969.693"/>
<line x1="702.028" y1="1165.637" x2="604.056" y2="800.000"/>
<line x1="702.028" y1="1165.637" x2="434.363" y2="702.028"/>
<line x1="702.028" y1="1165.637" x2="702.028" y2="630.307"/>
<line x1="702.028" y1="1165.637" x2="532.335" y2="532.335"/>
<line x1="702.028" y1="1165.637" x2="68.725" y2="800.000"/>
<line x1="702.028" y1="1165.637" x2="800.000" y2="1531.275"/>
<line x1="702.028" y1="1165.637" x2="969.693" y2="897.972"/>
<line x1="702.028" y1="1165.637" x2="336.390" y2="1067.665"/>
<line x1="1067.665" y1="336.391" x2="702.028" y2="969.693"/>
<line x1="1067.665" y1="336.391" x2="604.056" y2="800.000"/>
<line x1="1067.665" y1="336.391" x2="434.363" y2="702.028"/>
<line x1="1067.665" y1="336.391" x2="1165.637" y2="166.698"/>
<line x1="1067.665" y1="336.391" x2="702.028" y2="434.363"/>
<line x1="1067.665" y1="336.391" x2="532.335" y2="336.390"/>
<line x1="1067.665" y1="336.391" x2="434.363" y2="166.698"/>
<line x1="1067.665" y1="336.391" x2="1433.302" y2="434.363"/>
<line x1="1067.665" y1="336.391" x2="969.693" y2="702.028"/>
<line x1="1067.665" y1="336.391" x2="800.000" y2="604.056"/>
<line x1="1067.665" y1="336.391" x2="800.000" y2="68.725"/>
<line x1="702.028" y1="969.693" x2="604.056" y2="800.000"/>
<line x1="702.028" y1="969.693" x2="434.363" y2="702.028"/>
<line x1="702.028" y1="969.693" x2="800.000" y2="800.000"/>
<line x1="702.028" y1="969.693" x2="702.028" y2="434.363"/>
<line x1="702.028" y1="969.693" x2="532.335" y2="336.390"/>
<line x1="702.028" y1="969.693" x2="68.725" y2="800.000"/>
<line x1="702.028" y1="969.693" x2="800.000" y2="1335.330"/>
<line x1="702.028" y1="969.693" x2="969.693" y2="702.028"/>
<line x1="702.028" y1="969.693" x2="800.000" y2="604.056"/>
<line x1="702.028" y1="969.693" x2="336.390" y2="1067.665"/>
<line x1="604.056" y1="800.000" x2="434.363" y2="702.028"/>
<line x1="604.056" y1="800.000" x2="702.028" y2="630.307"/>
<line x1="604.056" y1="800.000" x2="702.028" y2="434.363"/>
<line x1="604.056" y1="800.000" x2="434.363" y2="166.698"/>
<line x1="604.056" y1="800.000" x2="68.725" y2="800.000"/>
<line x1="604.056" y1="800.000" x2="969.693" y2="897.972"/>
<line x1="604.056" y1="800.000" x2="969.693" y2="702.028"/>
<line x1="604.056" y1="800.000" x2="336.390" y2="1067.665"/>
<line x1="604.056" y1="800.000" x2="336.390" y2="532.335"/>
<line x1="434.363" y1="702.028" x2="532.335" y2="532.335"/>
<line x1="434.363" y1="702.028" x2="532.335" y2="336.390"/>
<line x1="434.363" y1="702.028" x2="434.363" y2="166.698"/>
<line x1="434.363" y1="702.028" x2="68.725" y2="800.000"/>
<line x1="434.363" y1="702.028" x2="800.000" y2="604.056"/>
<line x1="434.363" y1="702.028" x2="702.028" y2="434.363"/>
<line x1="434.363" y1="702.028" x2="336.390" y2="1067.665"/>
<line x1="434.363" y1="702.028" x2="166.697" y2="434.363"/>
<line x1="1165.637" y1="166.698" x2="800.000" y2="800.000"/>
<line x1="1165.637" y1="166.698" x2="702.028" y2="630.307"/>
<line x1="1165.637" y1="166.698" x2="532.335" y2="532.335"/>
<line x1="1165.637" y1="166.698" x2="702.028" y2="434.363"/>
<line x1="1165.637" y1="166.698" x2="532.335" y2="336.390"/>
<line x1="1165.637" y1="166.698" x2="434.363" y2="166.698"/>
<line x1="1165.637" y1="166.698" x2="1263.609" y2="532.335"/>
<line x1="1165.637" y1="166.698" x2="1433.302" y2="434.363"/>
<line x1="1165.637" y1="166.698" x2="800.000" y2="264.670"/>
<line x1="1165.637" y1="166.698" x2="800.000" y2="68.725"/>
<line x1="800.000" y1="800.000" x2="702.028" y2="630.307"/>
<line x1="800.000" y1="800.000" x2="532.335" y2="336.390"/>
<line x1="800.000" y1="800.000" x2="68.725" y2="800.000"/>
<line x1="702.028" y1="630.307" x2="532.335" y2="532.335"/>
<line x1="702.028" y1="630.307" x2="702.028" y2="434.363"/>
<line x1="702.028" y1="630.307" x2="434.363" y2="166.698"/>
<line x1="702.028" y1="630.307" x2="68.725" y2="800.000"/>
<line x1="702.028" y1="630.307" x2="800.000" y2="995.944"/>
<line x1="702.028" y1="630.307" x2="969.693" y2="897.972"/>
<line x1="702.028" y1="630.307" x2="800.000" y2="264.670"/>
<line x1="702.028" y1="630.307" x2="336.390" y2="532.335"/>
<line x1="532.335" y1="532.335" x2="532.335" y2="336.390"/>
<line x1="532.335" y1="532.335" x2="434.363" y2="166.698"/>
<line x1="532.335" y1="532.335" x2="68.725" y2="800.000"/>
<line x1="532.335" y1="532.335" x2="630.307" y2="897.972"/>
<line x1="532.335" y1="532.335" x2="800.000" y2="264.670"/>
<line x1="532.335" y1="532.335" x2="166.697" y2="434.363"/>
<line x1="702.028" y1="434.363" x2="532.335" y2="336.390"/>
<line x1="702.028" y1="434.363" x2="434.363" y2="166.698"/>
<line x1="702.028" y1="434.363" x2="68.725" y2="800.000"/>
<line x1="702.028" y1="434.363" x2="969.693" y2="702.028"/>
<line x1="702.028" y1="434.363" x2="800.000" y2="68.725"/>
<line x1="702.028" y1="434.363" x2="336.390" y2="532.335"/>
<line x1="532.335" y1="336.390" x2="434.363" y2="166.698"/>
<line x1="532.335" y1="336.390" x2="68.725" y2="800.000"/>
<line x1="532.335" y1="336.390" x2="630.307" y2="702.028"/>
<line x1="532.335" y1="336.390" x2="800.000" y2="604.056"/>
<line x1="532.335" y1="336.390" x2="800.000" y2="68.725"/>
<line x1="532.335" y1="336.390" x2="166.697" y2="434.363"/>
<line x1="434.363" y1="166.698" x2="68.725" y2="800.000"/>
<line x1="434.363" y1="166.698" x2="800.000" y2="264.670"/>
<line x1="434.363" y1="166.698" x2="800.000" y2="68.725"/>
<line x1="434.363" y1="166.698" x2="336.390" y2="532.335"/>
<line x1="434.363" y1="166.698" x2="166.697" y2="434.363"/>
<line x1="68.725" y1="800.000" x2="166.698" y2="1165.637"/>
<line x1="68.725" y1="800.000" x2="336.390" y2="1067.665"/>
<line x1="68.725" y1="800.000" x2="336.390" y2="532.335"/>
<line x1="68.725" y1="800.000" x2="166.697" y2="434.363"/>
<line x1="1433.302" y1="1165.637" x2="1263.609" y2="1067.665"/>
<line x1="1433.302" y1="1165.637" x2="800.000" y2="1531.275"/>
<line x1="1433.302" y1="1165.637" x2="1165.637" y2="702.028"/>
<line x1="1433.302" y1="1165.637" x2="800.000" y2="1335.330"/>
<line x1="1433.302" y1="1165.637" x2="702.028" y2="1165.637"/>
<line x1="1433.302" y1="1165.637" x2="1263.609" y2="532.335"/>
<line x1="1433.302" y1="1165.637" x2="897.972" y2="1165.637"/>
<line x1="1433.302" y1="1165.637" x2="800.000" y2="995.944"/>
<line x1="1433.302" y1="1165.637" x2="800.000" y2="800.000"/>
<line x1="1433.302" y1="1165.637" x2="1433.302" y2="434.363"/>
<line x1="1433.302" y1="1165.637" x2="969.693" y2="897.972"/>
<line x1="1433.302" y1="1165.637" x2="969.693" y2="702.028"/>
<line x1="1433.302" y1="1165.637" x2="1067.665" y2="532.335"/>
<line x1="1263.609" y1="1067.665" x2="1165.637" y2="897.972"/>
<line x1="1263.609" y1="1067.665" x2="800.000" y2="1531.275"/>
<line x1="1263.609" y1="1067.665" x2="800.000" y2="1335.330"/>
<line x1="1263.609" y1="1067.665" x2="532.335" y2="1067.665"/>
<line x1="1263.609" y1="1067.665" x2="1263.609" y2="532.335"/>
<line x1="1263.609" y1="1067.665" x2="630.307" y2="897.972"/>
<line x1="1263.609" y1="1067.665" x2="630.307" y2="702.028"/>
<line x1="1263.609" y1="1067.665" x2="1433.302" y2="434.363"/>
<line x1="1263.609" y1="1067.665" x2="1067.665" y2="1067.665"/>
<line x1="1263.609" y1="1067.665" x2="800.000" y2="800.000"/>
<line x1="1263.609" y1="1067.665" x2="800.000" y2="604.056"/>
<line x1="1263.609" y1="1067.665" x2="897.972" y2="434.363"/>
<line x1="1165.637" y1="897.972" x2="800.000" y2="1531.275"/>
<line x1="1165.637" y1="897.972" x2="1165.637" y2="702.028"/>
<line x1="1165.637" y1="897.972" x2="702.028" y2="1165.637"/>
<line x1="1165.637" y1="897.972" x2="630.307" y2="897.972"/>
<line x1="1165.637" y1="897.972" x2="532.335" y2="532.335"/>
<line x1="1165.637" y1="897.972" x2="1433.302" y2="434.363"/>
<line x1="1165.637" y1="897.972" x2="969.693" y2="897.972"/>
<line x1="1165.637" y1="897.972" x2="800.000" y2="264.670"/>
<line x1="800.000" y1="1531.275" x2="800.000" y2="1335.330"/>
<line x1="800.000" y1="1531.275" x2="532.335" y2="1067.665"/>
<line x1="800.000" y1="1531.275" x2="800.000" y2="995.944"/>
<line x1="800.000" y1="1531.275" x2="630.307" y2="897.972"/>
<line x1="800.000" y1="1531.275" x2="166.698" y2="1165.637"/>
<line x1="800.000" y1="1531.275" x2="1067.665" y2="1067.665"/>
<line x1="800.000" y1="1531.275" x2="969.693" y2="897.972"/>
<line x1="800.000" y1="1531.275" x2="800.000" y2="800.000"/>
<line x1="800.000" y1="1531.275" x2="336.390" y2="1067.665"/>
<line x1="800.000" y1="1531.275" x2="434.363" y2="897.972"/>
<line x1="1165.637" y1="702.028" x2="800.000" y2="1335.330"/>
<line x1="1165.637" y1="702.028" x2="532.335" y2="1067.665"/>
<line x1="1165.637" y1="702.028" x2="1263.609" y2="532.335"/>
<line x1="1165.637" y1="702.028" x2="630.307" y2="702.028"/>
<line x1="1165.637" y1="702.028" x2="969.693" y2="702.028"/>
<line x1="1165.637" y1="702.028" x2="702.028" y2="434.363"/>
<line x1="1165.637" y1="702.028" x2="800.000" y2="68.725"/>
<line x1="800.000" y1="1335.330" x2="702.028" y2="1165.637"/>
<line x1="800.000" y1="1335.330" x2="897.972" y2="1165.637"/>
<line x1="800.000" y1="1335.330" x2="800.000" y2="800.000"/>
<line x1="800.000" y1="1335.330" x2="630.307" y2="702.028"/>
<line x1="800.000" y1="1335.330" x2="166.698" y2="1165.637"/>
<line x1="800.000" y1="1335.330" x2="969.693" y2="702.028"/>
<line x1="800.000" y1="1335.330" x2="800.000" y2="604.056"/>
<line x1="800.000" y1="1335.330" x2="336.390" y2="1067.665"/>
<line x1="800.000" y1="1335.330" x2="434.363" y2="702.028"/>
<line x1="702.028" y1="1165.637" x2="532.335" y2="1067.665"/>
<line x1="702.028" y1="1165.637" x2="800.000" y2="995.944"/>
<line x1="702.028" y1="1165.637" x2="166.698" y2="1165.637"/>
<line x1="702.028" y1="1165.637" x2="969.693" y2="702.028"/>
<line x1="702.028" y1="1165.637" x2="702.028" y2="434.363"/>
<line x1="702.028" y1="1165.637" x2="336.390" y2="532.335"/>
<line x1="532.335" y1="1067.665" x2="630.307" y2="897.972"/>
<line x1="532.335" y1="1067.665" x2="532.335" y2="532.335"/>
<line x1="532.335" y1="1067.665" x2="800.000" y2="604.056"/>
<line x1="532.335" y1="1067.665" x2="336.390" y2="1067.665"/>
<line x1="532.335" y1="1067.665" x2="166.697" y2="434.363"/>
<line x1="1263.609" y1="532.335" x2="897.972" y2="1165.637"/>
<line x1="1263.609" y1="532.335" x2="800.000" y2="995.944"/>
<line x1="1263.609" y1="532.335" x2="630.307" y2="897.972"/>
<line x1="1263.609" y1="532.335" x2="800.000" y2="800.000"/>
<line x1="1263.609" y1="532.335" x2="630.307" y2="702.028"/>
<line x1="1263.609" y1="532.335" x2="532.335" y2="532.335"/>
<line x1="1263.609" y1="532.335" x2="1433.302" y2="434.363"/>
<line x1="1263.609" y1="532.335" x2="1067.665" y2="532.335"/>
<line x1="1263.609" y1="532.335" x2="800.000" y2="264.670"/>
<line x1="1263.609" y1="532.335" x2="800.000" y2="68.725"/>
<line x1="897.972" y1="1165.637" x2="800.000" y2="995.944"/>
<line x1="897.972" y1="1165.637" x2="630.307" y2="702.028"/>
<line x1="897.972" y1="1165.637" x2="166.698" y2="1165.637"/>
<line x1="897.972" y1="1165.637" x2="1067.665" y2="1067.665"/>
<line x1="897.972" y1="1165.637" x2="897.972" y2="434.363"/>
<line x1="897.972" y1="1165.637" x2="434.363" y2="897.972"/>
<line x1="800.000" y1="995.944" x2="630.307" y2="897.972"/>
<line x1="800.000" y1="995.944" x2="800.000" y2="800.000"/>
<line x1="800.000" y1="995.944" x2="532.335" y2="532.335"/>
<line x1="800.000" y1="995.944" x2="166.698" y2="1165.637"/>
<line x1="800.000" y1="995.944" x2="969.693" y2="897.972"/>
<line x1="800.000" y1="995.944" x2="1067.665" y2="532.335"/>
<line x1="800.000" y1="995.944" x2="800.000" y2="264.670"/>
<line x1="800.000" y1="995.944" x2="336.390" y2="532.335"/>
<line x1="630.307" y1="897.972" x2="630.307" y2="702.028"/>
<line x1="630.307" y1="897.972" x2="166.698" y2="1165.637"/>
<line x1="630.307" y1="897.972" x2="800.000" y2="800.000"/>
<line x1="630.307" y1="897.972" x2="897.972" y2="434.363"/>
<line x1="630.307" y1="897.972" x2="800.000" y2="264.670"/>
<line x1="630.307" y1="897.972" x2="434.363" y2="897.972"/>
<line x1="630.307" y1="897.972" x2="166.697" y2="434.363"/>
<line x1="800.000" y1="800.000" x2="630.307" y2="702.028"/>
<line x1="800.000" y1="800.000" x2="166.698" y2="1165.637"/>
<line x1="800.000" y1="800.000" x2="969.693" y2="702.028"/>
<line x1="800.000" y1="800.000" x2="800.000" y2="68.725"/>
<line x1="800.000" y1="800.000" x2="336.390" y2="532.335"/>
<line x1="630.307" y1="702.028" x2="532.335" y2="532.335"/>
<line x1="630.307" y1="702.028" x2="166.698" y2="1165.637"/>
<line x1="630.307" y1="702.028" x2="800.000" y2="604.056"/>
<line x1="630.307" y1="702.028" x2="800.000" y2="68.725"/>
<line x1="630.307" y1="702.028" x2="434.363" y2="702.028"/>
<line x1="630.307" y1="702.028" x2="166.697" y2="434.363"/>
<line x1="532.335" y1="532.335" x2="166.698" y2="1165.637"/>
<line x1="532.335" y1="532.335" x2="702.028" y2="434.363"/>
<line x1="532.335" y1="532.335" x2="800.000" y2="68.725"/>
<line x1="532.335" y1="532.335" x2="336.390" y2="532.335"/>
<line x1="166.698" y1="1165.637" x2="336.390" y2="1067.665"/>
<line x1="166.698" y1="1165.637" x2="434.363" y2="702.028"/>
<line x1="166.698" y1="1165.637" x2="336.390" y2="532.335"/>
<line x1="166.698" y1="1165.637" x2="166.697" y2="434.363"/>
<line x1="1433.302" y1="434.363" x2="1067.665" y2="1067.665"/>
<line x1="1433.302" y1="434.363" x2="969.693" y2="897.972"/>
<line x1="1433.302" y1="434.363" x2="800.000" y2="800.000"/>
<line x1="1433.302" y1="434.363" x2="969.693" y2="702.028"/>
<line x1="1433.302" y1="434.363" x2="800.000" y2="604.056"/>
<line x1="1433.302" y1="434.363" x2="702.028" y2="434.363"/>
<line x1="1433.302" y1="434.363" x2="897.972" y2="434.363"/>
<line x1="1433.302" y1="434.363" x2="800.000" y2="264.670"/>
<line x1="1433.302" y1="434.363" x2="800.000" y2="68.725"/>
<line x1="1067.665" y1="1067.665" x2="969.693" y2="897.972"/>
<line x1="1067.665" y1="1067.665" x2="800.000" y2="604.056"/>
<line x1="1067.665" y1="1067.665" x2="336.390" y2="1067.665"/>
<line x1="1067.665" y1="1067.665" x2="1067.665" y2="532.335"/>
<line x1="1067.665" y1="1067.665" x2="434.363" y2="702.028"/>
<line x1="969.693" y1="897.972" x2="800.000" y2="800.000"/>
<line x1="969.693" y1="897.972" x2="969.693" y2="702.028"/>
<line x1="969.693" y1="897.972" x2="702.028" y2="434.363"/>
<line x1="969.693" y1="897.972" x2="336.390" y2="1067.665"/>
<line x1="969.693" y1="897.972" x2="800.000" y2="264.670"/>
<line x1="969.693" y1="897.972" x2="434.363" y2="897.972"/>
<line x1="969.693" y1="897.972" x2="336.390" y2="532.335"/>
<line x1="800.000" y1="800.000" x2="800.000" y2="604.056"/>
<line x1="800.000" y1="800.000" x2="336.390" y2="1067.665"/>
<line x1="800.000" y1="800.000" x2="800.000" y2="264.670"/>
<line x1="800.000" y1="800.000" x2="166.697" y2="434.363"/>
<line x1="969.693" y1="702.028" x2="800.000" y2="604.056"/>
<line x1="969.693" y1="702.028" x2="336.390" y2="1067.665"/>
<line x1="969.693" y1="702.028" x2="1067.665" y2="532.335"/>
<line x1="969.693" y1="702.028" x2="800.000" y2="68.725"/>
<line x1="969.693" y1="702.028" x2="434.363" y2="702.028"/>
<line x1="969.693" y1="702.028" x2="336.390" y2="532.335"/>
<line x1="800.000" y1="604.056" x2="702.028" y2="434.363"/>
<line x1="800.000" y1="604.056" x2="336.390" y2="1067.665"/>
<line x1="800.000" y1="604.056" x2="897.972" y2="434.363"/>
<line x1="800.000" y1="604.056" x2="800.000" y2="68.725"/>
<line x1="800.000" y1="604.056" x2="166.697" y2="434.363"/>
<line x1="702.028" y1="434.363" x2="336.390" y2="1067.665"/>
<line x1="702.028" y1="434.363" x2="800.000" y2="264.670"/>
<line x1="702.028" y1="434.363" x2="166.697" y2="434.363"/>
<line x1="336.390" y1="1067.665" x2="434.363" y2="897.972"/>
<line x1="336.390" y1="1067.665" x2="336.390" y2="532.335"/>
<line x1="336.390" y1="1067.665" x2="166.697" y2="434.363"/>
<line x1="1067.665" y1="532.335" x2="897.972" y2="434.363"/>
<line x1="1067.665" y1="532.335" x2="434.363" y2="897.972"/>
<line x1="1067.665" y1="532.335" x2="800.000" y2="68.725"/>
<line x1="1067.665" y1="532.335" x2="336.390" y2="532.335"/>
<line x1="897.972" y1="434.363" x2="800.000" y2="264.670"/>
<line x1="897.972" y1="434.363" x2="434.363" y2="702.028"/>
<line x1="897.972" y1="434.363" x2="166.697" y2="434.363"/>
<line x1="800.000" y1="264.670" x2="434.363" y2="897.972"/>
<line x1="800.000" y1="264.670" x2="800.000" y2="68.725"/>
<line x1="800.000" y1="264.670" x2="336.390" y2="532.335"/>
<line x1="800.000" y1="264.670" x2="166.697" y2="434.363"/>
<line x1="434.363" y1="897.972" x2="434.363" y2="702.028"/>
<line x1="434.363" y1="897.972" x2="166.697" y2="434.363"/>
<line x1="800.000" y1="68.725" x2="434.363" y2="702.028"/>
<line x1="800.000" y1="68.725" x2="336.390" y2="532.335"/>
<line x1="800.000" y1="68.725" x2="166.697" y2="434.363"/>
<line x1="434.363" y1="702.028" x2="336.390" y2="532.335"/>
<line x1="336.390" y1="532.335" x2="166.697" y2="434.363"/>
</g>
<g style="stroke:#000000;stroke-width:3.0;fill:#ff0000">
<circle cx="1531.275" cy="800.000" r="30.2"/>
<circle cx="1165.637" cy="1433.302" r="30.2"/>
<circle cx="1067.665" cy="1263.609" r="30.2"/>
<circle cx="897.972" cy="969.693" r="30.2"/>
<circle cx="434.363" cy="1433.302" r="30.2"/>
<circle cx="995.944" cy="800.000" r="30.2"/>
<circle cx="897.972" cy="630.307" r="30.2"/>
<circle cx="532.335" cy="1263.609" r="30.2"/>
<circle cx="264.670" cy="800.000" r="30.2"/>
<circle cx="1335.330" cy="800.000" r="30.2"/>
<circle cx="1067.665" cy="336.391" r="30.2"/>
<circle cx="702.028" cy="969.693" r="30.2"/>
<circle cx="604.056" cy="800.000" r="30.2"/>
<circle cx="1165.637" cy="166.698" r="30.2"/>
<circle cx="702.028" cy="630.307" r="30.2"/>
<circle cx="532.335" cy="336.390" r="30.2"/>
<circle cx="434.363" cy="166.698" r="30.2"/>
<circle cx="68.725" cy="800.000" r="30.2"/>
<circle cx="1433.302" cy="1165.637" r="30.2"/>
<circle cx="1263.609" cy="1067.665" r="30.2"/>
<circle cx="800.000" cy="1531.275" r="30.2"/>
<circle cx="800.000" cy="1335.330" r="30.2"/>
<circle cx="1263.609" cy="532.335" r="30.2"/>
<circle cx="800.000" cy="995.944" r="30.2"/>
<circle cx="630.307" cy="897.972" r="30.2"/>
<circle cx="630.307" cy="702.028" r="30.2"/>
<circle cx="166.698" cy="1165.637" r="30.2"/>
<circle cx="1433.302" cy="434.363" r="30.2"/>
<circle cx="969.693" cy="897.972" r="30.2"/>
<circle cx="969.693" cy="702.028" r="30.2"/>
<circle cx="800.000" cy="604.056" r="30.2"/>
<circle cx="336.390" cy="1067.665" r="30.2"/>
<circle cx="800.000" cy="264.670" r="30.2"/>
<circle cx="800.000" cy="68.725" r="30.2"/>
<circle cx="336.390" cy="532.335" r="30.2"/>
<circle cx="166.697" cy="434.363" r="30.2"/>
</g>
<g style="stroke:#000000;stroke-width:3.0;fill:#ff7f00">
<circle cx="897.972" cy="1165.637" r="30.2"/>
<circle cx="1067.665" cy="1067.665" r="30.2"/>
<circle cx="1165.637" cy="897.972" r="30.2"/>
<circle cx="897.972" cy="434.363" r="30.2"/>
<circle cx="532.335" cy="1067.665" r="30.2"/>
<circle cx="434.363" cy="897.972" r="30.2"/>
<circle cx="1165.637" cy="702.028" r="30.2"/>
<circle cx="1067.665" cy="532.335" r="30.2"/>
<circle cx="702.028" cy="1165.637" r="30.2"/>
<circle cx="434.363" cy="702.028" r="30.2"/>
<circle cx="532.335" cy="532.335" r="30.2"/>
<circle cx="702.028" cy="434.363" r="30.2"/>
</g>
<g style="stroke:#000000;stroke-width:3.0;fill:#ffff00">
<circle cx="800.000" cy="800.000" r="30.2"/>
</g>
</svg>